<?xml version="1.0" encoding="UTF-8"?> <!-- Generator: Adobe Illustrator 23.0.0, SVG Export Plug-In . SVG Version: 6.00 Build 0) --> <svg xmlns="http://www.w3.org/2000/svg" xmlns:xlink="http://www.w3.org/1999/xlink" version="1.1" id="Layer_1" x="0px" y="0px" viewBox="0 0 560 88" style="enable-background:new 0 0 560 88;" xml:space="preserve"> <style type="text/css"> .st0{fill:#10B5F5;} .st1{fill:#FFFFFF;} .st2{opacity:0.9;fill:#FFFFFF;} .st3{opacity:0.7;fill:#FFFFFF;} .st4{opacity:0.8;fill:#FFFFFF;} .st5{display:none;} .st6{display:inline;fill:#EB5A7B;} .st7{display:inline;opacity:0.15;fill:#2A2F35;} .st8{display:inline;} .st9{display:inline;fill:#33A2C1;} .st10{display:inline;fill:#8BBB39;} .st11{display:inline;fill:#0F7BB1;} .st12{display:inline;opacity:0.2;fill:#2A2F35;} .st13{display:inline;fill:#19B6F3;} .st14{display:inline;fill:#E21039;} .st15{display:inline;fill:#63A728;} .st16{fill:#2B3134;} .st17{fill:#74CFF7;} .st18{fill:#58C7F4;} .st19{fill:#3FBFF4;} </style> <g> <polygon class="st17" points="0,0 50.81,0 25.4,44 "></polygon> <polygon class="st18" points="25.4,44 76.21,44 50.81,0 "></polygon> <polygon class="st0" points="0,88 50.81,88 25.4,44 "></polygon> <polygon class="st19" points="25.4,44 76.21,44 50.81,88 "></polygon> <path class="st16" d="M147.11,77.24c-5.37,3.52-11.8,5.28-19.27,5.28c-7.04,0-13.18-1.49-18.4-4.46 c-5.23-2.98-9.24-7.24-12.03-12.79c-2.8-5.55-4.19-12.14-4.19-19.76s1.4-14.21,4.19-19.76c2.79-5.55,6.79-9.82,11.98-12.79 c5.19-2.98,11.27-4.46,18.24-4.46c7.48,0,13.81,1.56,19,4.68c5.19,3.12,8.77,7.77,10.73,13.94l-13.61,5.77 c-1.16-4.28-2.98-7.37-5.44-9.26c-2.47-1.89-5.81-2.83-10.02-2.83c-6.1,0-10.87,2.14-14.32,6.43c-3.45,4.28-5.17,10.38-5.17,18.29 c0,7.91,1.67,14.01,5.01,18.29c3.34,4.28,8.06,6.43,14.16,6.43c8.78,0,14.3-4.25,16.55-12.74l13.83,4.14 C156.22,68.51,152.48,73.72,147.11,77.24z"></path> <path class="st16" d="M198.36,32.62l-1.7,12c-1.53-1-3.63-1.5-6.3-1.5c-3.27,0-6.09,1.18-8.45,3.55c-2.37,2.37-3.55,5.68-3.55,9.95 v25.9h-13.7v-50h11.9l0.9,9.8c2.73-7.2,7.9-10.8,15.5-10.8C195.29,31.52,197.09,31.89,198.36,32.62z"></path> <path class="st16" d="M244.86,38.42c4.5,4.6,6.75,10.97,6.75,19.1c0,8.13-2.25,14.5-6.75,19.1c-4.5,4.6-10.78,6.9-18.85,6.9 c-8.07,0-14.35-2.3-18.85-6.9c-4.5-4.6-6.75-10.96-6.75-19.1c0-8.13,2.25-14.5,6.75-19.1c4.5-4.6,10.78-6.9,18.85-6.9 C234.07,31.52,240.36,33.82,244.86,38.42z M217.16,45.67c-2.03,2.63-3.05,6.58-3.05,11.85c0,5.27,1.02,9.22,3.05,11.85 c2.03,2.63,4.98,3.95,8.85,3.95c3.87,0,6.82-1.32,8.85-3.95c2.03-2.63,3.05-6.58,3.05-11.85c0-5.27-1.02-9.22-3.05-11.85 c-2.03-2.63-4.98-3.95-8.85-3.95C222.14,41.72,219.19,43.04,217.16,45.67z"></path> <path class="st16" d="M337.01,32.52l-15.9,50h-15.9l-10.9-35.3l-10.5,35.3h-15.8l-15.9-50h14.5l10,39l11.2-39h13.5l11.2,39l10-39 H337.01z"></path> <path class="st16" d="M388.22,10.62v71.9h-12.2l-0.6-9.3c-1.47,3.13-3.65,5.63-6.55,7.5c-2.9,1.87-6.22,2.8-9.95,2.8 c-6.67,0-11.9-2.28-15.7-6.85c-3.8-4.57-5.7-10.92-5.7-19.05c0-8.2,1.9-14.6,5.7-19.2c3.8-4.6,9.03-6.9,15.7-6.9 c3.6,0,6.73,0.82,9.4,2.45c2.66,1.63,4.73,3.88,6.2,6.75v-30.1H388.22z M371.42,69.12c2.06-2.6,3.1-6.3,3.1-11.1v-1 c0-4.73-1.04-8.42-3.1-11.05c-2.07-2.63-4.9-3.95-8.5-3.95c-3.67,0-6.54,1.33-8.6,4c-2.07,2.67-3.1,6.5-3.1,11.5 s1.03,8.83,3.1,11.5c2.06,2.67,4.93,4,8.6,4C366.52,73.02,369.35,71.72,371.42,69.12z"></path> <path class="st16" d="M423.93,54.97h-13.5v27.55h-14.81V10.65h31.69c8.2,0,14.61,1.94,19.22,5.83c4.61,3.88,6.92,9.35,6.92,16.39 c0,5.16-1.27,9.47-3.81,12.96c-2.54,3.48-6.17,5.99-10.89,7.51l18.95,29.18h-16.88L423.93,54.97z M410.43,43.54h14.92 c4.36,0,7.57-0.85,9.64-2.56c2.07-1.7,3.1-4.34,3.1-7.89c0-3.56-1.03-6.19-3.1-7.89c-2.07-1.7-5.28-2.56-9.64-2.56h-14.92V43.54z"></path> <path class="st16" d="M461.92,18.02c0-4.93,2.83-7.4,8.5-7.4c5.67,0,8.5,2.47,8.5,7.4c0,4.87-2.83,7.3-8.5,7.3 C464.75,25.32,461.92,22.89,461.92,18.02z M477.22,82.52h-13.7v-50h13.7V82.52z"></path> <path class="st16" d="M541.25,27.52c0-5.13,2.87-7.7,8.6-7.7c2.27,0,4.17,0.5,5.7,1.5l1.9-9.1c-1.07-0.8-2.52-1.43-4.35-1.9 c-1.83-0.47-3.85-0.7-6.05-0.7c-5.8,0-10.4,1.45-13.8,4.35c-3.4,2.9-5.1,7.08-5.1,12.55v6h-6.9h-1.8h-14v-5 c0-5.13,2.87-7.7,8.6-7.7c2.27,0,4.17,0.5,5.7,1.5l1.9-9.1c-1.07-0.8-2.52-1.43-4.35-1.9c-1.83-0.47-3.85-0.7-6.05-0.7 c-5.8,0-10.4,1.45-13.8,4.35c-3.4,2.9-5.1,7.08-5.1,12.55v6h-8.7v10.2h8.7v39.8h13.7v-39.8h13.4h1.8h6.9v39.8h13.7v-39.8h15.2 v-10.2h-15.8V27.52z"></path> </g> </svg> 